<svg width="164" height="32" viewBox="0 0 164 32" fill="none" xmlns="http://www.w3.org/2000/svg">
<rect width="48" height="32" rx="4" fill="white"/>
<path fill-rule="evenodd" clip-rule="evenodd" d="M30.35 17.67C30.3561 16.1452 29.0986 15.4867 28.1227 14.9756C27.5049 14.6521 27 14.3876 27 14C27 13.67 27.32 13.32 28 13.23C28.8093 13.1499 29.6251 13.2916 30.36 13.64L30.78 11.64C30.0636 11.3713 29.3051 11.2325 28.54 11.23C26.18 11.23 24.54 12.49 24.54 14.29C24.54 15.62 25.73 16.36 26.63 16.8C27.53 17.24 27.88 17.55 27.87 17.95C27.87 18.57 27.13 18.85 26.44 18.86C25.5889 18.8709 24.749 18.6644 24 18.26L23.57 20.26C24.4175 20.5908 25.3203 20.7571 26.23 20.75C28.74 20.75 30.39 19.51 30.4 17.59L30.35 17.67ZM23.86 11.39L21.86 20.64H19.46L21.46 11.39H23.86ZM33.92 17.39L35.18 13.92L35.91 17.39H33.92ZM38.81 20.67H36.59L36.3 19.29H33.29L32.8 20.67H30.28L33.87 12.1C34.0355 11.6922 34.43 11.424 34.87 11.42H36.87L38.81 20.67ZM16.61 20.61L20.49 11.36H17.89L15.4 17.65L14.4 12.3C14.3115 11.7563 13.8408 11.3577 13.29 11.36H9.22L9.16 11.63C9.97634 11.7897 10.7693 12.0518 11.52 12.41C11.8398 12.5603 12.0564 12.8682 12.09 13.22L14 20.61H16.61Z" fill="#2A2A6C"/>
<rect x="58" width="48" height="32" rx="4" fill="white"/>
<g opacity="0.01">
<rect x="62.65" y="3.19995" width="38.71" height="25.6" fill="white"/>
</g>
<rect x="76.9" y="7.65991" width="10.21" height="16.68" fill="#F26122"/>
<path d="M78 15.9999C77.9831 12.7535 79.4577 9.67899 82 7.65994C77.6502 4.23923 71.4019 4.73596 67.6473 8.80094C63.8926 12.8659 63.8926 19.1339 67.6473 23.1989C71.4019 27.2639 77.6502 27.7606 82 24.3399C79.4577 22.3209 77.9831 19.2464 78 15.9999Z" fill="#EA1D25"/>
<path fill-rule="evenodd" clip-rule="evenodd" d="M98.14 22.2299V22.5699H98.08V22.2299H97.94V22.1599H98.29V22.2299H98.14ZM98.82 22.1599V22.5699H98.75V22.2599L98.64 22.5299H98.56L98.44 22.2599V22.5699H98.37V22.1599H98.47L98.6 22.4499L98.72 22.1599H98.82Z" fill="#F69E1E"/>
<path d="M99.16 16C99.1574 20.0593 96.8389 23.7614 93.1879 25.5358C89.5369 27.3102 85.1935 26.846 82 24.34C86.6001 20.7179 87.3967 14.0543 83.78 9.44999C83.2616 8.78326 82.6638 8.18216 82 7.65999C85.1935 5.15398 89.5369 4.68973 93.1879 6.46416C96.8389 8.23859 99.1574 11.9406 99.16 16Z" fill="#F69E1E"/>
<rect x="116" width="48" height="32" rx="4" fill="white"/>
<path fill-rule="evenodd" clip-rule="evenodd" d="M133.087 6.13173C130.746 7.41156 129.224 9.77351 129 12.3967V14.5247C129.096 14.881 129.425 15.1394 129.811 15.1297C130.26 15.1262 130.621 14.7608 130.621 14.3123V13.2015C130.595 10.8542 131.854 8.68021 133.904 7.53591C135.922 6.32803 138.44 6.32803 140.457 7.53591L141.421 8.10177C141.424 8.10317 141.427 8.10456 141.429 8.10596C141.814 8.32602 142.305 8.19329 142.525 7.80836H142.539C142.754 7.41924 142.625 6.92952 142.246 6.69759L141.267 6.13173C140.008 5.37724 138.593 5 137.178 5C135.762 5 134.346 5.37724 133.087 6.13173ZM143.856 8.63689C143.65 9.0344 143.805 9.52341 144.202 9.7295L145.152 10.2954C147.202 11.4376 148.461 13.6137 148.428 15.961C148.456 18.309 147.199 20.4837 145.152 21.6336L140.423 24.3644C138.403 25.5744 135.882 25.5744 133.862 24.3644C131.812 23.2243 130.557 21.0461 130.6 18.6995V17.588C130.593 17.1416 130.23 16.7818 129.783 16.7783C129.407 16.7818 129.093 17.0375 129 17.384V19.4917C129.221 22.1079 130.721 24.4699 133.038 25.7763C135.558 27.2775 138.699 27.2775 141.219 25.7763L145.976 23.0378C148.545 21.6182 150.121 18.8951 150.07 15.961C150.106 13.0339 148.534 10.3219 145.976 8.89817L145.02 8.33231C144.996 8.31764 144.973 8.30366 144.949 8.29179C144.83 8.22961 144.702 8.19957 144.576 8.19957C144.283 8.19957 144.001 8.35885 143.856 8.63689ZM134.728 8.98899C133.194 9.84617 132.249 11.4718 132.263 13.2288V18.6995C132.232 20.462 133.182 22.0947 134.728 22.94C136.235 23.8419 138.114 23.8419 139.619 22.94L140.583 22.3741C140.962 22.1394 141.08 21.6434 140.849 21.264C140.63 20.877 140.14 20.7422 139.753 20.9608C139.748 20.9636 139.743 20.9671 139.738 20.9699L138.781 21.5358C137.765 22.1226 136.513 22.1226 135.497 21.5358C134.476 20.9608 133.854 19.871 133.877 18.6995V13.2288C133.859 12.0523 134.494 10.9611 135.526 10.3939C136.539 9.79936 137.795 9.79936 138.808 10.3939L143.538 13.1317C144.561 13.7017 145.188 14.7894 145.166 15.961C145.185 17.1339 144.561 18.2223 143.538 18.7973L142.574 19.3631C142.2 19.6084 142.094 20.1106 142.34 20.4851C142.567 20.833 143.022 20.9525 143.391 20.7603L144.341 20.2015C145.879 19.3464 146.824 17.7193 146.808 15.961C146.837 14.2012 145.886 12.5707 144.341 11.7275L139.619 8.98899C138.868 8.5335 138.021 8.30646 137.174 8.30646C136.327 8.30646 135.48 8.5335 134.728 8.98899ZM135.74 12.4415C135.602 12.6818 135.529 12.9521 135.526 13.2288V14.3402C135.567 14.7894 135.966 15.1206 136.415 15.078C136.807 15.0423 137.117 14.7315 137.153 14.3402V13.5718C137.154 13.5005 137.191 13.4349 137.25 13.3971C137.317 13.3762 137.387 13.3762 137.454 13.3971L139.55 14.5847L141.645 15.794C141.713 15.8192 141.754 15.889 141.743 15.961C141.748 16.0336 141.71 16.1028 141.645 16.1356L139.55 17.3163L137.454 18.5248C137.389 18.5528 137.316 18.5528 137.25 18.5248C137.185 18.4976 137.144 18.4291 137.153 18.3572V17.588C137.111 17.1395 136.713 16.8084 136.263 16.8503C135.872 16.8866 135.562 17.1968 135.526 17.588V18.6995C135.521 19.2793 135.835 19.8158 136.343 20.0967C136.846 20.3908 137.468 20.3908 137.971 20.0967L142.7 17.3589C143.207 17.0773 143.521 16.5415 143.518 15.961C143.518 15.3818 143.205 14.8474 142.7 14.5638L137.971 11.8323C137.714 11.6863 137.436 11.6171 137.161 11.6171C136.594 11.6164 136.042 11.9133 135.74 12.4415Z" fill="url(#paint0_linear_162_4157)"/>
<defs>
<linearGradient id="paint0_linear_162_4157" x1="139.047" y1="32.5388" x2="140.297" y2="-5.71333" gradientUnits="userSpaceOnUse">
<stop stop-color="#FB6723"/>
<stop offset="1" stop-color="#FF9500"/>
</linearGradient>
</defs>
</svg>
